<svg width="100" height="100" viewBox="0 0 100 100" fill="none" xmlns="http://www.w3.org/2000/svg">
<rect width="100" height="100" rx="12" fill="#074D31"/>
<path d="M90 60.9595C89.0675 60.3934 87.3691 59.4442 85.0212 58.6616C81.6409 57.496 76.9119 56.6301 71.3337 57.5792C69.452 57.8956 67.4705 58.4285 65.4057 59.2277C65.2059 59.311 65.0227 59.3776 64.8229 59.4609C63.7739 59.8772 62.7415 60.3934 61.6758 60.9595C60.7766 61.4424 59.8941 61.9752 58.9949 62.558C56.9634 63.8569 54.9652 65.3389 53.0337 66.954C50.819 52.6504 51.9014 39.3792 52.4176 32.8518C52.4176 32.8185 52.4675 32.8018 52.5008 32.8185C57.2298 35.9989 55.9144 44.9075 54.8986 47.4551C54.8986 47.5051 54.9486 47.5384 54.9819 47.5051C60.8765 40.0619 57.9958 31.8194 56.7803 29.7379C56.747 29.688 56.8136 29.638 56.8635 29.6713C57.7127 30.404 58.4121 31.2033 58.9949 32.0025C60.8099 34.5003 61.4926 37.1812 61.6758 39.5623C61.7591 40.8112 61.7424 41.9768 61.6758 42.9759C61.6758 43.2423 61.6425 43.4921 61.6092 43.7252C61.6092 43.7585 61.6425 43.7752 61.6758 43.7585H61.7091C63.3076 40.4116 64.0736 35.3661 61.6758 30.454C61.0264 29.1218 60.1605 27.8064 58.9949 26.5242C58.6619 26.1579 58.2955 25.8082 57.9292 25.4252C57.8959 25.3919 57.9292 25.3253 57.9792 25.3419C58.3455 25.4419 58.6785 25.5584 58.9949 25.6583C59.994 26.0247 60.8932 26.5408 61.6758 27.1736C63.4575 28.589 64.6897 30.5206 65.4057 32.552C66.0052 34.2338 66.2716 35.9489 66.2716 37.4809C66.2716 37.5475 66.3549 37.5475 66.3549 37.4809C67.4705 33.1182 66.7878 29.8212 65.3891 27.4234C64.39 25.7083 63.0246 24.4428 61.6591 23.5602C60.7267 22.9608 59.7942 22.5445 58.9783 22.2947C58.4954 22.1282 58.0791 22.0449 57.6961 21.995C57.6295 21.995 57.6461 21.8951 57.6961 21.8951C58.129 21.8451 58.5453 21.8285 58.9616 21.8118C59.9607 21.8118 60.8432 21.8951 61.6425 22.0449C63.2244 22.3613 64.4566 22.9441 65.3724 23.6268C66.8711 24.7092 67.6204 25.9747 67.8868 26.4909C67.8868 26.5409 67.9701 26.4909 67.9701 26.4576C67.7536 24.1597 66.7712 22.3613 65.3891 21.0625C64.3234 20.0634 63.0079 19.3807 61.6591 18.9478C60.7766 18.698 59.8774 18.5481 58.9783 18.5315C57.7793 18.5315 56.6137 18.7313 55.648 19.1809C55.598 19.1809 55.5647 19.1476 55.5813 19.0976C56.4472 17.7655 57.6794 16.9496 58.9783 16.5166C59.8774 16.2336 60.7933 16.117 61.6591 16.1836C62.4917 16.2336 63.241 16.4167 63.8571 16.7331C63.9071 16.7331 63.9404 16.6998 63.9071 16.6499C63.2244 15.8339 62.4584 15.1845 61.6758 14.7016C60.8266 14.1854 59.9107 13.8857 58.9949 13.7691C56.5971 13.4861 54.166 14.5684 52.5508 17.1994C52.5508 17.2327 52.4842 17.2327 52.4675 17.1994C52.1511 16.5999 51.8514 15.9505 51.585 15.2511C50.9356 13.6359 50.4194 11.8376 50.1197 10.0392C50.1197 9.97261 50.0364 9.97261 50.0364 10.0392C49.7533 11.8376 49.2038 13.6526 48.5711 15.2678C48.288 15.9671 48.0049 16.5999 47.6885 17.1827C47.6885 17.216 47.6219 17.216 47.6053 17.1827C44.7745 12.6035 39.4793 12.6868 36.249 16.6499C36.2156 16.6832 36.249 16.7498 36.2989 16.7331C38.447 15.6341 42.5266 15.9671 44.5581 19.0976C44.5914 19.1476 44.5581 19.1975 44.4914 19.1809C41.3443 17.7655 36.4821 18.6813 33.8844 21.995C32.952 23.1772 32.3192 24.6592 32.1527 26.4576C32.1527 26.5075 32.2193 26.5409 32.2359 26.4909C32.4358 26.0913 32.9353 25.2254 33.8678 24.3262C35.3831 22.8942 38.0307 21.4455 42.41 21.8784C42.4766 21.8784 42.4766 21.9783 42.41 21.9783C40.1787 22.2614 35.5496 24.4095 33.8511 29.305C33.1018 31.4697 32.902 34.1672 33.7512 37.4809C33.7512 37.5308 33.8345 37.5308 33.8345 37.4809C33.8345 37.3976 33.8345 37.331 33.8345 37.2478C33.8844 32.8018 36.249 26.8572 42.1269 25.3419C42.1769 25.3419 42.2102 25.3919 42.1769 25.4252C35.6162 31.6029 36.249 39.2293 38.397 43.7419C38.4303 43.7918 38.4803 43.7752 38.4803 43.7419C38.1972 40.3283 37.9641 34.2671 43.2259 29.6713C43.2759 29.638 43.3258 29.6713 43.3092 29.7379C42.0936 31.836 39.2129 40.0452 45.1076 47.5051C45.1409 47.555 45.2075 47.5051 45.1908 47.4551C44.1917 44.9075 42.8763 35.9989 47.5886 32.8185C47.6219 32.8185 47.6719 32.8185 47.6719 32.8518C48.1881 39.3625 49.2704 52.6504 47.0558 66.954C43.2592 63.8402 39.2462 61.0927 35.2665 59.4942C34.767 59.2944 34.2841 59.1278 33.8178 58.9447C29.7216 57.496 25.9583 57.0964 22.678 57.2629C17.4161 57.496 13.3864 59.1944 11.1718 60.3767C10.7222 60.6098 10.3392 60.8429 10.0561 61.0261C9.93958 61.1094 10.0228 61.2759 10.1394 61.2426C10.4891 61.126 10.8221 61.0095 11.1551 60.9262C15.2015 59.7106 19.0313 59.3776 22.6613 59.7273C26.6077 60.0936 30.321 61.2592 33.8012 62.9244C38.6634 65.2722 43.0761 68.6192 47.0558 72.166C41.4276 77.4112 36.6819 82.5065 33.8012 84.3049C33.6513 84.3882 33.5181 84.4881 33.3849 84.5547C32.6855 83.5389 31.4866 82.9561 30.1878 83.2725C29.0389 83.5389 28.1064 84.5214 27.8566 85.7369C27.6235 86.8193 27.8899 87.9849 28.456 88.601C29.988 90.2495 31.7697 90.3494 33.8012 89.4336C37.6976 87.6852 42.5266 82.1735 48.4712 76.3455C48.9707 75.8626 49.4702 75.3631 49.9698 74.8802C50.486 75.3631 50.9689 75.8459 51.4684 76.3288C54.166 78.9598 56.6304 81.5408 58.8783 83.7388C59.8108 84.6379 60.6934 85.4705 61.5592 86.2198C62.8747 87.3854 64.1236 88.3346 65.2892 88.984C67.5538 90.2662 69.5353 90.4327 71.2171 88.8341C71.3004 88.7509 71.4003 88.6676 71.4835 88.5843C71.8665 88.1681 72.3328 86.8026 72.083 85.7203C71.9498 85.0875 71.6334 84.5214 71.2005 84.0884C70.8175 83.6888 70.3013 83.3724 69.7518 83.2559C68.4363 82.9561 67.2374 83.5223 66.5547 84.538C66.1717 84.3216 65.7388 84.0385 65.2725 83.7055C64.2068 82.9228 62.958 81.8072 61.5426 80.4917C60.6934 79.7091 59.8108 78.8266 58.8617 77.9107C57.03 76.129 55.0152 74.1641 52.8838 72.1493C54.7821 70.4675 56.7803 68.819 58.8617 67.3037C59.7276 66.671 60.6267 66.0715 61.5426 65.4887C62.7581 64.7227 63.9904 64.0067 65.2725 63.3407C67.1874 62.3582 69.1523 61.5423 71.2005 60.9095C75.4466 59.6107 79.9925 59.1778 84.888 60.0104C86.4865 60.2768 88.1017 60.6931 89.7669 61.2259C89.8834 61.3092 89.9834 61.126 89.8501 61.0428L90 60.9595Z" fill="white"/>
</svg>
