<?xml version="1.0" encoding="UTF-8"?>
<svg id="Layer_1" data-name="Layer 1" xmlns="http://www.w3.org/2000/svg" viewBox="0 0 48 48">
  <defs>
    <style>
      .cls-1 {
        fill: #9da4ae;
        stroke-width: 0px;
      }
    </style>
  </defs>
  <path class="cls-1" d="M47.97,30.62c-.56-.34-1.58-.91-2.99-1.38-2.03-.7-4.87-1.22-8.22-.65-1.13.19-2.32.51-3.56.99-.12.05-.23.09-.35.14-.63.25-1.25.56-1.89.9-.54.29-1.07.61-1.61.96-1.22.78-2.42,1.67-3.58,2.64-1.33-8.59-.68-16.56-.37-20.48,0-.02.03-.03.05-.02,2.84,1.91,2.05,7.26,1.44,8.79,0,.03.03.05.05.03,3.54-4.47,1.81-9.42,1.08-10.67-.02-.03.02-.06.05-.04.51.44.93.92,1.28,1.4,1.09,1.5,1.5,3.11,1.61,4.54.05.75.04,1.45,0,2.05,0,.16-.02.31-.04.45,0,.02.02.03.04.02,0,0,.02,0,.02,0,.96-2.01,1.42-5.04-.02-7.99-.39-.8-.91-1.59-1.61-2.36-.2-.22-.42-.43-.64-.66-.02-.02,0-.06.03-.05.22.06.42.13.61.19.6.22,1.14.53,1.61.91,1.07.85,1.81,2.01,2.24,3.23.36,1.01.52,2.04.52,2.96,0,.04.05.04.05,0,.67-2.62.26-4.6-.58-6.04-.6-1.03-1.42-1.79-2.24-2.32-.56-.36-1.12-.61-1.61-.76-.29-.1-.54-.15-.77-.18-.04,0-.03-.06,0-.06.26-.03.51-.04.76-.05.6,0,1.13.05,1.61.14.95.19,1.69.54,2.24.95.9.65,1.35,1.41,1.51,1.72,0,.03.05,0,.05-.02-.13-1.38-.72-2.46-1.55-3.24-.64-.6-1.43-1.01-2.24-1.27-.53-.15-1.07-.24-1.61-.25-.72,0-1.42.12-2,.39-.03,0-.05-.02-.04-.05.52-.8,1.26-1.29,2.04-1.55.54-.17,1.09-.24,1.61-.2.5.03.95.14,1.32.33.03,0,.05-.02.03-.05-.41-.49-.87-.88-1.34-1.17-.51-.31-1.06-.49-1.61-.56-1.44-.17-2.9.48-3.87,2.06,0,.02-.04.02-.05,0-.19-.36-.37-.75-.53-1.17-.39-.97-.7-2.05-.88-3.13,0-.04-.05-.04-.05,0-.17,1.08-.5,2.17-.88,3.14-.17.42-.34.8-.53,1.15,0,.02-.04.02-.05,0-1.7-2.75-4.88-2.7-6.82-.32-.02.02,0,.06.03.05,1.29-.66,3.74-.46,4.96,1.42.02.03,0,.06-.04.05-1.89-.85-4.81-.3-6.37,1.69-.56.71-.94,1.6-1.04,2.68,0,.03.04.05.05.02.12-.24.42-.76.98-1.3.91-.86,2.5-1.73,5.13-1.47.04,0,.04.06,0,.06-1.34.17-4.12,1.46-5.14,4.4-.45,1.3-.57,2.92-.06,4.91,0,.03.05.03.05,0,0-.05,0-.09,0-.14.03-2.67,1.45-6.24,4.98-7.15.03,0,.05.03.03.05-3.94,3.71-3.56,8.29-2.27,11,.02.03.05.02.05,0-.17-2.05-.31-5.69,2.85-8.45.03-.02.06,0,.05.04-.73,1.26-2.46,6.19,1.08,10.67.02.03.06,0,.05-.03-.6-1.53-1.39-6.88,1.44-8.79.02,0,.05,0,.05.02.31,3.91.96,11.89-.37,20.48-2.28-1.87-4.69-3.52-7.08-4.48-.3-.12-.59-.22-.87-.33-2.46-.87-4.72-1.11-6.69-1.01-3.16.14-5.58,1.16-6.91,1.87-.27.14-.5.28-.67.39-.07.05-.02.15.05.13.21-.07.41-.14.61-.19,2.43-.73,4.73-.93,6.91-.72,2.37.22,4.6.92,6.69,1.92,2.92,1.41,5.57,3.42,7.96,5.55-3.38,3.15-6.23,6.21-7.96,7.29-.09.05-.17.11-.25.15-.42-.61-1.14-.96-1.92-.77-.69.16-1.25.75-1.4,1.48-.14.65.02,1.35.36,1.72.92.99,1.99,1.05,3.21.5,2.34-1.05,5.24-4.36,8.81-7.86.3-.29.6-.59.9-.88.31.29.6.58.9.87,1.62,1.58,3.1,3.13,4.45,4.45.56.54,1.09,1.04,1.61,1.49.79.7,1.54,1.27,2.24,1.66,1.36.77,2.55.87,3.56-.09.05-.05.11-.1.16-.15.23-.25.51-1.07.36-1.72-.08-.38-.27-.72-.53-.98-.23-.24-.54-.43-.87-.5-.79-.18-1.51.16-1.92.77-.23-.13-.49-.3-.77-.5-.64-.47-1.39-1.14-2.24-1.93-.51-.47-1.04-1-1.61-1.55-1.1-1.07-2.31-2.25-3.59-3.46,1.14-1.01,2.34-2,3.59-2.91.52-.38,1.06-.74,1.61-1.09.73-.46,1.47-.89,2.24-1.29,1.15-.59,2.33-1.08,3.56-1.46,2.55-.78,5.28-1.04,8.22-.54.96.16,1.93.41,2.93.73.07.05.13-.06.05-.11Z"/>
</svg>