<?xml version="1.0" encoding="UTF-8"?>
<svg id="Layer_1" data-name="Layer 1" xmlns="http://www.w3.org/2000/svg" viewBox="0 0 145.39 48">
  <defs>
    <style>
      .cls-1 {
        fill: #9da4ae;
      }

      .cls-1, .cls-2 {
        stroke-width: 0px;
      }

      .cls-2 {
        fill: #6c737f;
      }
    </style>
  </defs>
  <path class="cls-1" d="M47.97,30.62c-.56-.34-1.58-.91-2.99-1.38-2.03-.7-4.87-1.22-8.22-.65-1.13.19-2.32.51-3.56.99-.12.05-.23.09-.35.14-.63.25-1.25.56-1.89.9-.54.29-1.07.61-1.61.96-1.22.78-2.42,1.67-3.58,2.64-1.33-8.59-.68-16.56-.37-20.48,0-.02.03-.03.05-.02,2.84,1.91,2.05,7.26,1.44,8.79,0,.03.03.05.05.03,3.54-4.47,1.81-9.42,1.08-10.67-.02-.03.02-.06.05-.04.51.44.93.92,1.28,1.4,1.09,1.5,1.5,3.11,1.61,4.54.05.75.04,1.45,0,2.05,0,.16-.02.31-.04.45,0,.02.02.03.04.02,0,0,.02,0,.02,0,.96-2.01,1.42-5.04-.02-7.99-.39-.8-.91-1.59-1.61-2.36-.2-.22-.42-.43-.64-.66-.02-.02,0-.06.03-.05.22.06.42.13.61.19.6.22,1.14.53,1.61.91,1.07.85,1.81,2.01,2.24,3.23.36,1.01.52,2.04.52,2.96,0,.04.05.04.05,0,.67-2.62.26-4.6-.58-6.04-.6-1.03-1.42-1.79-2.24-2.32-.56-.36-1.12-.61-1.61-.76-.29-.1-.54-.15-.77-.18-.04,0-.03-.06,0-.06.26-.03.51-.04.76-.05.6,0,1.13.05,1.61.14.95.19,1.69.54,2.24.95.9.65,1.35,1.41,1.51,1.72,0,.03.05,0,.05-.02-.13-1.38-.72-2.46-1.55-3.24-.64-.6-1.43-1.01-2.24-1.27-.53-.15-1.07-.24-1.61-.25-.72,0-1.42.12-2,.39-.03,0-.05-.02-.04-.05.52-.8,1.26-1.29,2.04-1.55.54-.17,1.09-.24,1.61-.2.5.03.95.14,1.32.33.03,0,.05-.02.03-.05-.41-.49-.87-.88-1.34-1.17-.51-.31-1.06-.49-1.61-.56-1.44-.17-2.9.48-3.87,2.06,0,.02-.04.02-.05,0-.19-.36-.37-.75-.53-1.17-.39-.97-.7-2.05-.88-3.13,0-.04-.05-.04-.05,0-.17,1.08-.5,2.17-.88,3.14-.17.42-.34.8-.53,1.15,0,.02-.04.02-.05,0-1.7-2.75-4.88-2.7-6.82-.32-.02.02,0,.06.03.05,1.29-.66,3.74-.46,4.96,1.42.02.03,0,.06-.04.05-1.89-.85-4.81-.3-6.37,1.69-.56.71-.94,1.6-1.04,2.68,0,.03.04.05.05.02.12-.24.42-.76.98-1.3.91-.86,2.5-1.73,5.13-1.47.04,0,.04.06,0,.06-1.34.17-4.12,1.46-5.14,4.4-.45,1.3-.57,2.92-.06,4.91,0,.03.05.03.05,0,0-.05,0-.09,0-.14.03-2.67,1.45-6.24,4.98-7.15.03,0,.05.03.03.05-3.94,3.71-3.56,8.29-2.27,11,.02.03.05.02.05,0-.17-2.05-.31-5.69,2.85-8.45.03-.02.06,0,.05.04-.73,1.26-2.46,6.19,1.08,10.67.02.03.06,0,.05-.03-.6-1.53-1.39-6.88,1.44-8.79.02,0,.05,0,.05.02.31,3.91.96,11.89-.37,20.48-2.28-1.87-4.69-3.52-7.08-4.48-.3-.12-.59-.22-.87-.33-2.46-.87-4.72-1.11-6.69-1.01-3.16.14-5.58,1.16-6.91,1.87-.27.14-.5.28-.67.39-.07.05-.02.15.05.13.21-.07.41-.14.61-.19,2.43-.73,4.73-.93,6.91-.72,2.37.22,4.6.92,6.69,1.92,2.92,1.41,5.57,3.42,7.96,5.55-3.38,3.15-6.23,6.21-7.96,7.29-.09.05-.17.11-.25.15-.42-.61-1.14-.96-1.92-.77-.69.16-1.25.75-1.4,1.48-.14.65.02,1.35.36,1.72.92.99,1.99,1.05,3.21.5,2.34-1.05,5.24-4.36,8.81-7.86.3-.29.6-.59.9-.88.31.29.6.58.9.87,1.62,1.58,3.1,3.13,4.45,4.45.56.54,1.09,1.04,1.61,1.49.79.7,1.54,1.27,2.24,1.66,1.36.77,2.55.87,3.56-.09.05-.05.11-.1.16-.15.23-.25.51-1.07.36-1.72-.08-.38-.27-.72-.53-.98-.23-.24-.54-.43-.87-.5-.79-.18-1.51.16-1.92.77-.23-.13-.49-.3-.77-.5-.64-.47-1.39-1.14-2.24-1.93-.51-.47-1.04-1-1.61-1.55-1.1-1.07-2.31-2.25-3.59-3.46,1.14-1.01,2.34-2,3.59-2.91.52-.38,1.06-.74,1.61-1.09.73-.46,1.47-.89,2.24-1.29,1.15-.59,2.33-1.08,3.56-1.46,2.55-.78,5.28-1.04,8.22-.54.96.16,1.93.41,2.93.73.07.05.13-.06.05-.11Z"/>
  <path class="cls-2" d="M59.44,29h-1.58v-9.77h4.2c1.79,0,2.84,1.16,2.84,2.94s-1.05,2.94-2.84,2.94h-2.62v3.89ZM59.44,20.61v3.11h2.52c.8,0,1.27-.43,1.27-1.22v-.67c0-.78-.48-1.22-1.27-1.22h-2.52ZM69.06,29h-.98c-1.04,0-1.55-.57-1.55-1.51v-8.85h1.53v9.11h1.01v1.25ZM76.7,29h-.85c-.8,0-1.22-.5-1.32-1.22h-.07c-.28.91-1.06,1.39-2.13,1.39-1.5,0-2.35-.85-2.35-2.17,0-1.44,1.08-2.18,3.11-2.18h1.32v-.62c0-.88-.48-1.4-1.5-1.4-.85,0-1.37.42-1.74.99l-.91-.83c.48-.81,1.33-1.41,2.74-1.41,1.88,0,2.93.92,2.93,2.55v3.65h.77v1.25ZM72.77,28.01c.94,0,1.64-.45,1.64-1.16v-1.05h-1.29c-1.06,0-1.58.35-1.58.98v.25c0,.64.48.98,1.23.98ZM81.5,29h-1.33c-1.05,0-1.61-.59-1.61-1.58v-4.45h-1.13v-1.25h.62c.5,0,.67-.21.67-.71v-1.27h1.37v1.99h1.53v1.25h-1.53v4.79h1.41v1.25ZM83.57,29v-6.03h-1.11v-1.25h1.11v-1.2c0-1.18.63-1.88,1.85-1.88h1.2v1.25h-1.53v1.83h1.53v1.25h-1.53v6.03h-1.53ZM90.75,29.17c-2.03,0-3.35-1.48-3.35-3.81s1.32-3.81,3.35-3.81,3.35,1.48,3.35,3.81-1.32,3.81-3.35,3.81ZM90.75,27.91c1.04,0,1.74-.64,1.74-1.93v-1.23c0-1.29-.7-1.93-1.74-1.93s-1.74.64-1.74,1.93v1.23c0,1.29.7,1.93,1.74,1.93ZM97.32,29h-1.53v-7.28h1.53v1.4h.07c.21-.74.84-1.4,2-1.4h.41v1.47h-.6c-1.2,0-1.88.41-1.88,1.16v4.65ZM102.68,29h-1.53v-7.28h1.53v1.2h.07c.29-.76.84-1.37,1.95-1.37.98,0,1.81.48,2.16,1.48h.04c.27-.81,1.02-1.48,2.2-1.48,1.44,0,2.3,1.04,2.3,2.83v4.62h-1.53v-4.44c0-1.12-.42-1.69-1.34-1.69-.77,0-1.48.41-1.48,1.25v4.89h-1.53v-4.44c0-1.13-.43-1.69-1.33-1.69-.76,0-1.5.41-1.5,1.25v4.89ZM122.48,29h-5.56v-9.77h1.58v8.37h3.98v1.4ZM126.71,29.17c-2.03,0-3.35-1.48-3.35-3.81s1.32-3.81,3.35-3.81,3.35,1.48,3.35,3.81-1.32,3.81-3.35,3.81ZM126.71,27.91c1.04,0,1.74-.64,1.74-1.93v-1.23c0-1.29-.7-1.93-1.74-1.93s-1.74.64-1.74,1.93v1.23c0,1.29.7,1.93,1.74,1.93ZM138.14,29.69c0,1.51-1.08,2.28-3.7,2.28-2.38,0-3.3-.64-3.3-1.75,0-.8.48-1.23,1.25-1.4v-.15c-.53-.17-.83-.57-.83-1.12,0-.76.59-1.12,1.29-1.29v-.06c-.85-.41-1.33-1.18-1.33-2.16,0-1.48,1.05-2.49,2.9-2.49.49,0,.94.07,1.32.22v-.2c0-.64.31-1.04.95-1.04h1.12v1.23h-1.48v.29c.66.43,1.02,1.13,1.02,1.97,0,1.47-1.06,2.46-2.91,2.46-.35,0-.69-.04-.95-.11-.36.13-.7.36-.7.73,0,.39.38.55,1.02.55h1.79c1.79,0,2.55.76,2.55,2.02ZM136.71,29.85c0-.5-.34-.83-1.33-.83h-2.46c-.34.2-.5.49-.5.84,0,.59.43.99,1.57.99h.95c1.19,0,1.78-.34,1.78-1.01ZM134.43,25.4c.9,0,1.41-.41,1.41-1.23v-.28c0-.83-.52-1.23-1.41-1.23s-1.41.41-1.41,1.23v.28c0,.83.52,1.23,1.41,1.23ZM142.05,29.17c-2.03,0-3.35-1.48-3.35-3.81s1.32-3.81,3.35-3.81,3.35,1.48,3.35,3.81-1.32,3.81-3.35,3.81ZM142.05,27.91c1.04,0,1.74-.64,1.74-1.93v-1.23c0-1.29-.7-1.93-1.74-1.93s-1.74.64-1.74,1.93v1.23c0,1.29.7,1.93,1.74,1.93Z"/>
</svg>